<svg width="2281" height="183" viewBox="0 0 2281 183" fill="none" xmlns="http://www.w3.org/2000/svg">
<path d="M24.1565 179V170.131C32.95 169.979 39.5452 169.448 43.9419 168.539C48.4903 167.477 51.5226 165.431 53.0387 162.398C54.5548 159.366 55.3129 154.818 55.3129 148.753V27.5387H48.0355C41.3645 27.5387 35.6032 29.1307 30.7516 32.3145C25.9 35.3468 21.7306 40.35 18.2435 47.3242C14.7565 54.2984 11.7242 63.471 9.14677 74.8419H0.0500001C1.41452 65.2903 2.4 55.8145 3.00645 46.4145C3.6129 37.0145 3.99194 27.5387 4.14355 17.9871C10.8145 18.1387 18.0919 18.2903 25.9758 18.4419C34.0113 18.5936 42.0468 18.6694 50.0823 18.6694C58.2694 18.6694 65.7742 18.6694 72.5968 18.6694C79.2677 18.6694 86.621 18.6694 94.6564 18.6694C102.692 18.6694 110.727 18.5936 118.763 18.4419C126.95 18.2903 134.379 18.1387 141.05 17.9871C141.202 27.5387 141.581 37.0145 142.187 46.4145C142.794 55.8145 143.779 65.2903 145.144 74.8419H136.047C134.076 66.3516 131.877 59.0742 129.452 53.0097C127.026 46.9452 124.221 42.0936 121.037 38.4548C118.005 34.6645 114.518 31.9355 110.576 30.2677C106.634 28.4484 102.085 27.5387 96.9306 27.5387H89.8806V148.753C89.8806 154.818 90.6387 159.366 92.1548 162.398C93.671 165.431 96.6274 167.477 101.024 168.539C105.573 169.448 112.244 169.979 121.037 170.131V179C115.731 178.848 108.756 178.697 100.115 178.545C91.6242 178.394 82.6032 178.318 73.0516 178.318C62.8935 178.318 53.4935 178.394 44.8516 178.545C36.2097 178.697 29.3113 178.848 24.1565 179ZM240.427 179V170.131C246.037 169.979 249.827 168.766 251.798 166.492C253.92 164.066 254.982 159.821 254.982 153.756V97.3565C254.982 89.1694 253.39 83.029 250.206 78.9355C247.022 74.8419 242.246 72.7952 235.879 72.7952C230.875 72.7952 226.251 74.2355 222.006 77.1161C217.761 79.9968 214.046 84.1661 210.862 89.6242L211.09 79.6177C214.88 72.7952 220.035 67.5645 226.554 63.9258C233.225 60.1355 240.73 58.2403 249.069 58.2403C261.198 58.2403 270.446 61.879 276.814 69.1565C283.333 76.2823 286.593 86.5919 286.593 100.085V153.756C286.593 159.821 288.109 164.066 291.141 166.492C294.325 168.766 299.935 169.979 307.97 170.131V179C305.696 178.848 302.512 178.773 298.419 178.773C294.477 178.621 290.156 178.469 285.456 178.318C280.756 178.166 276.132 178.09 271.583 178.09C265.519 178.09 259.53 178.242 253.617 178.545C247.704 178.697 243.308 178.848 240.427 179ZM159.011 179V170.131C167.198 169.979 172.808 168.766 175.84 166.492C179.024 164.066 180.616 159.821 180.616 153.756V32.3145C180.616 25.3403 179.024 20.3371 175.84 17.3048C172.656 14.2726 167.046 12.6048 159.011 12.3016V3.43226C162.498 3.58387 165.758 3.73548 168.79 3.8871C171.974 4.03871 175.233 4.11451 178.569 4.11451C184.785 4.11451 190.622 3.8871 196.08 3.43226C201.69 2.82581 206.996 1.99194 212 0.930647V153.756C212 159.821 213.061 164.066 215.183 166.492C217.306 168.766 221.172 169.979 226.782 170.131V179C223.598 178.848 219.201 178.697 213.591 178.545C208.133 178.242 202.524 178.09 196.762 178.09C189.94 178.09 182.966 178.242 175.84 178.545C168.714 178.697 163.104 178.848 159.011 179ZM379.757 182.184C368.386 182.184 358.455 179.758 349.965 174.906C341.626 169.903 335.183 162.777 330.634 153.529C326.086 144.281 323.812 133.289 323.812 120.553C323.812 107.211 326.237 95.9161 331.089 86.6677C335.941 77.4194 342.763 70.3694 351.557 65.5177C360.35 60.6661 370.66 58.2403 382.486 58.2403C393.099 58.2403 402.12 60.2113 409.549 64.1532C416.978 67.9436 422.587 73.9323 426.378 82.1194C430.168 90.3065 431.912 100.919 431.608 113.958H346.326L346.099 105.316H403.181C403.333 97.8871 402.65 91.3677 401.134 85.7581C399.77 79.9968 397.496 75.4484 394.312 72.1129C391.128 68.7774 386.958 67.1097 381.804 67.1097C375.284 67.1097 369.675 70.2936 364.975 76.6613C360.426 83.029 357.697 93.1113 356.787 106.908L357.242 107.818C357.091 109.182 357.015 110.698 357.015 112.366C357.015 114.034 357.015 115.929 357.015 118.052C357.015 133.061 359.82 144.811 365.429 153.302C371.191 161.792 379.529 166.037 390.446 166.037C397.875 166.037 404.318 164.218 409.776 160.579C415.386 156.789 420.086 151.027 423.876 143.295L432.063 147.844C427.666 158.911 420.996 167.402 412.05 173.315C403.105 179.227 392.341 182.184 379.757 182.184ZM511.006 179V170.131C517.98 169.827 523.135 169.221 526.471 168.311C529.958 167.25 532.232 165.431 533.293 162.853C534.506 160.124 535.113 156.031 535.113 150.573V46.4145C535.113 40.9565 534.506 36.9387 533.293 34.3613C532.232 31.6323 529.958 29.7371 526.471 28.6758C523.135 27.6145 517.98 27.0081 511.006 26.8565V17.9871C513.735 18.1387 518.284 18.2903 524.651 18.4419C531.171 18.4419 539.055 18.4419 548.303 18.4419C553.609 18.4419 558.309 18.4419 562.403 18.4419C566.497 18.4419 570.135 18.4419 573.319 18.4419C576.655 18.2903 579.611 18.2145 582.188 18.2145C584.918 18.0629 587.268 17.9871 589.238 17.9871C610.313 17.9871 626.232 21.3984 636.997 28.221C647.761 35.0436 653.143 45.05 653.143 58.2403C653.143 67.3371 650.414 75.1452 644.956 81.6645C639.498 88.1839 631.614 93.1871 621.305 96.6742C611.147 100.161 598.714 101.905 584.008 101.905H554.216V95.9919H584.235C596.061 95.9919 604.855 93.1113 610.616 87.35C616.377 81.4371 619.258 72.4919 619.258 60.5145C619.258 49.1436 616.529 40.729 611.071 35.271C605.764 29.6613 597.501 26.8565 586.282 26.8565H569.68V150.573C569.68 155.879 570.211 159.897 571.272 162.626C572.485 165.355 574.835 167.25 578.322 168.311C581.809 169.221 586.964 169.827 593.787 170.131V179C586.206 178.545 572.485 178.318 552.624 178.318C532.459 178.318 518.587 178.545 511.006 179ZM648.595 182.184C638.892 182.184 631.538 179.985 626.535 175.589C621.684 171.04 618.197 163.46 616.074 152.847L611.298 128.74C609.934 122.524 608.19 117.748 606.068 114.413C604.097 110.926 601.367 108.424 597.88 106.908C594.545 105.392 589.997 104.634 584.235 104.634H555.808V98.721H582.188C596.895 98.721 608.645 99.8581 617.438 102.132C626.232 104.406 632.979 108.273 637.679 113.731C642.379 119.189 645.942 126.845 648.367 136.7L651.779 151.027C653.143 156.789 654.811 160.882 656.782 163.308C658.753 165.734 661.406 166.871 664.742 166.719C666.561 166.719 668.153 166.416 669.517 165.81C671.034 165.052 672.55 163.915 674.066 162.398L678.387 168.994C674.445 173.542 670.124 176.877 665.424 179C660.724 181.123 655.114 182.184 648.595 182.184ZM742.446 182.184C731.075 182.184 721.145 179.758 712.654 174.906C704.316 169.903 697.872 162.777 693.324 153.529C688.775 144.281 686.501 133.289 686.501 120.553C686.501 107.211 688.927 95.9161 693.779 86.6677C698.63 77.4194 705.453 70.3694 714.246 65.5177C723.04 60.6661 733.349 58.2403 745.175 58.2403C755.788 58.2403 764.809 60.2113 772.238 64.1532C779.667 67.9436 785.277 73.9323 789.067 82.1194C792.858 90.3065 794.601 100.919 794.298 113.958H709.016L708.788 105.316H765.87C766.022 97.8871 765.34 91.3677 763.824 85.7581C762.459 79.9968 760.185 75.4484 757.001 72.1129C753.817 68.7774 749.648 67.1097 744.493 67.1097C737.974 67.1097 732.364 70.2936 727.664 76.6613C723.116 83.029 720.387 93.1113 719.477 106.908L719.932 107.818C719.78 109.182 719.704 110.698 719.704 112.366C719.704 114.034 719.704 115.929 719.704 118.052C719.704 133.061 722.509 144.811 728.119 153.302C733.88 161.792 742.219 166.037 753.135 166.037C760.564 166.037 767.008 164.218 772.466 160.579C778.075 156.789 782.775 151.027 786.566 143.295L794.753 147.844C790.356 158.911 783.685 167.402 774.74 173.315C765.795 179.227 755.03 182.184 742.446 182.184ZM870.995 182.184C864.476 182.184 859.018 181.502 854.621 180.137C850.224 178.773 846.585 177.408 843.705 176.044C840.824 174.679 838.247 173.997 835.972 173.997C832.334 173.997 829.681 176.347 828.013 181.047H819.143C819.598 176.953 819.902 172.784 820.053 168.539C820.205 164.142 820.281 159.29 820.281 153.984C820.281 148.526 820.281 142.31 820.281 135.335H828.922C831.5 147.768 836.048 157.168 842.568 163.535C849.239 169.903 857.729 173.087 868.039 173.087C874.861 173.087 880.168 171.647 883.958 168.766C887.748 165.734 889.643 161.565 889.643 156.258C889.643 151.103 887.521 146.858 883.276 143.523C879.182 140.187 871.829 136.927 861.216 133.744C847.571 129.65 837.564 124.344 831.197 117.824C824.829 111.153 821.645 102.966 821.645 93.2629C821.645 82.65 825.132 74.1597 832.106 67.7919C839.232 61.4242 848.708 58.2403 860.534 58.2403C866.598 58.2403 871.753 58.9226 875.998 60.2871C880.243 61.5 883.806 62.8645 886.687 64.3806C889.719 65.7452 892.297 66.4274 894.419 66.4274C895.935 66.4274 897.224 65.8968 898.285 64.8355C899.347 63.6226 900.256 61.879 901.014 59.6048H909.884C909.581 62.7887 909.353 66.2 909.202 69.8387C909.05 73.3258 908.898 77.4194 908.747 82.1194C908.747 86.8194 908.822 92.6565 908.974 99.6306H900.105C897.831 89.321 893.51 81.3613 887.142 75.7516C880.926 70.1419 873.497 67.3371 864.855 67.3371C858.79 67.3371 854.014 68.7016 850.527 71.4306C847.192 74.1597 845.524 78.1016 845.524 83.2565C845.524 88.5629 847.798 92.9597 852.347 96.4468C856.895 99.9339 864.779 103.345 875.998 106.681C889.189 110.319 898.74 115.171 904.653 121.235C910.718 127.3 913.75 135.26 913.75 145.115C913.75 156.789 909.96 165.885 902.379 172.405C894.798 178.924 884.337 182.184 870.995 182.184ZM995.806 182.184C984.435 182.184 974.504 179.758 966.014 174.906C957.675 169.903 951.231 162.777 946.683 153.529C942.135 144.281 939.86 133.289 939.86 120.553C939.86 107.211 942.286 95.9161 947.138 86.6677C951.99 77.4194 958.812 70.3694 967.606 65.5177C976.399 60.6661 986.709 58.2403 998.535 58.2403C1009.15 58.2403 1018.17 60.2113 1025.6 64.1532C1033.03 67.9436 1038.64 73.9323 1042.43 82.1194C1046.22 90.3065 1047.96 100.919 1047.66 113.958H962.375L962.148 105.316H1019.23C1019.38 97.8871 1018.7 91.3677 1017.18 85.7581C1015.82 79.9968 1013.54 75.4484 1010.36 72.1129C1007.18 68.7774 1003.01 67.1097 997.852 67.1097C991.333 67.1097 985.723 70.2936 981.023 76.6613C976.475 83.029 973.746 93.1113 972.836 106.908L973.291 107.818C973.14 109.182 973.064 110.698 973.064 112.366C973.064 114.034 973.064 115.929 973.064 118.052C973.064 133.061 975.869 144.811 981.478 153.302C987.24 161.792 995.578 166.037 1006.49 166.037C1013.92 166.037 1020.37 164.218 1025.82 160.579C1031.43 156.789 1036.13 151.027 1039.93 143.295L1048.11 147.844C1043.72 158.911 1037.04 167.402 1028.1 173.315C1019.15 179.227 1008.39 182.184 995.806 182.184ZM1119.79 182.184C1107.97 182.184 1099.1 178.924 1093.19 172.405C1087.27 165.734 1084.32 155.879 1084.32 142.84V70.2936H1059.53V61.4242H1084.32V28.4484C1090.23 28.4484 1095.76 28.0694 1100.92 27.3113C1106.07 26.5532 1111 25.4919 1115.7 24.1274V61.4242H1149.81V70.2936H1115.7V150.345C1115.7 156.106 1116.84 160.427 1119.11 163.308C1121.54 166.037 1125.1 167.402 1129.8 167.402C1134.2 167.402 1137.91 166.037 1140.94 163.308C1143.98 160.427 1146.48 156.258 1148.45 150.8L1155.5 153.756C1152.31 163.611 1147.92 170.813 1142.31 175.361C1136.7 179.91 1129.19 182.184 1119.79 182.184ZM1225.09 179V170.131C1232.22 169.827 1237.45 169.221 1240.79 168.311C1244.27 167.402 1246.55 165.582 1247.61 162.853C1248.67 160.124 1249.2 156.031 1249.2 150.573V46.4145C1249.2 40.9565 1248.59 36.9387 1247.38 34.3613C1246.32 31.6323 1244.05 29.7371 1240.56 28.6758C1237.22 27.6145 1232.07 27.0081 1225.09 26.8565V17.9871C1229.19 18.1387 1234.8 18.2903 1241.92 18.4419C1249.2 18.5936 1257.62 18.6694 1267.17 18.6694C1275.96 18.6694 1283.84 18.5936 1290.82 18.4419C1297.94 18.2903 1303.63 18.1387 1307.87 17.9871V26.8565C1300.9 27.0081 1295.67 27.6145 1292.18 28.6758C1288.85 29.5855 1286.57 31.4048 1285.36 34.1339C1284.3 36.8629 1283.77 40.9565 1283.77 46.4145V150.573C1283.77 156.031 1284.3 160.124 1285.36 162.853C1286.57 165.431 1288.85 167.25 1292.18 168.311C1295.67 169.221 1300.9 169.827 1307.87 170.131V179C1303.63 178.697 1297.94 178.545 1290.82 178.545C1283.84 178.394 1275.96 178.318 1267.17 178.318C1257.62 178.318 1249.2 178.394 1241.92 178.545C1234.8 178.545 1229.19 178.697 1225.09 179ZM1405.87 179V170.131C1411.48 169.979 1415.27 168.766 1417.24 166.492C1419.36 164.066 1420.42 159.821 1420.42 153.756V97.3565C1420.42 89.1694 1418.75 83.029 1415.42 78.9355C1412.24 74.8419 1407.46 72.7952 1401.09 72.7952C1396.09 72.7952 1391.46 74.2355 1387.22 77.1161C1382.97 79.9968 1379.34 84.1661 1376.3 89.6242V79.6177C1380.09 72.7952 1385.25 67.5645 1391.77 63.9258C1398.44 60.1355 1406.02 58.2403 1414.51 58.2403C1426.64 58.2403 1435.89 61.879 1442.25 69.1565C1448.62 76.2823 1451.81 86.5919 1451.81 100.085V153.756C1451.81 159.821 1453.4 164.066 1456.58 166.492C1459.77 168.766 1465.38 169.979 1473.41 170.131V179C1471.14 178.848 1467.95 178.773 1463.86 178.773C1459.92 178.621 1455.52 178.469 1450.67 178.318C1445.97 178.166 1441.35 178.09 1436.8 178.09C1430.88 178.09 1424.97 178.242 1419.06 178.545C1413.15 178.697 1408.75 178.848 1405.87 179ZM1324.45 179V170.131C1332.64 169.979 1338.25 168.766 1341.28 166.492C1344.46 164.066 1346.06 159.821 1346.06 153.756V90.3065C1346.06 83.1806 1344.39 78.1774 1341.05 75.2968C1337.87 72.2645 1332.34 70.5968 1324.45 70.2936V61.4242C1327.64 61.5758 1330.82 61.7274 1334 61.879C1337.19 62.0306 1340.45 62.1065 1343.78 62.1065C1350.3 62.1065 1356.37 61.879 1361.98 61.4242C1367.59 60.8177 1372.74 59.9839 1377.44 58.9226V153.756C1377.44 159.821 1378.5 164.066 1380.62 166.492C1382.75 168.766 1386.54 169.979 1392 170.131V179C1388.81 178.848 1384.49 178.697 1379.03 178.545C1373.57 178.242 1367.89 178.09 1361.98 178.09C1355.3 178.09 1348.41 178.242 1341.28 178.545C1334.31 178.697 1328.7 178.848 1324.45 179ZM1536.46 182.184C1524.63 182.184 1515.76 178.924 1509.85 172.405C1503.94 165.734 1500.98 155.879 1500.98 142.84V70.2936H1476.19V61.4242H1500.98V28.4484C1506.9 28.4484 1512.43 28.0694 1517.58 27.3113C1522.74 26.5532 1527.67 25.4919 1532.37 24.1274V61.4242H1566.48V70.2936H1532.37V150.345C1532.37 156.106 1533.5 160.427 1535.78 163.308C1538.2 166.037 1541.77 167.402 1546.47 167.402C1550.86 167.402 1554.58 166.037 1557.61 163.308C1560.64 160.427 1563.14 156.258 1565.11 150.8L1572.16 153.756C1568.98 163.611 1564.58 170.813 1558.97 175.361C1553.36 179.91 1545.86 182.184 1536.46 182.184ZM1639.94 182.184C1628.57 182.184 1618.64 179.758 1610.15 174.906C1601.81 169.903 1595.37 162.777 1590.82 153.529C1586.27 144.281 1584 133.289 1584 120.553C1584 107.211 1586.42 95.9161 1591.28 86.6677C1596.13 77.4194 1602.95 70.3694 1611.74 65.5177C1620.54 60.6661 1630.85 58.2403 1642.67 58.2403C1653.29 58.2403 1662.31 60.2113 1669.74 64.1532C1677.17 67.9436 1682.77 73.9323 1686.57 82.1194C1690.36 90.3065 1692.1 100.919 1691.8 113.958H1606.51L1606.29 105.316H1663.37C1663.52 97.8871 1662.84 91.3677 1661.32 85.7581C1659.96 79.9968 1657.68 75.4484 1654.5 72.1129C1651.32 68.7774 1647.15 67.1097 1641.99 67.1097C1635.47 67.1097 1629.86 70.2936 1625.16 76.6613C1620.61 83.029 1617.88 93.1113 1616.97 106.908L1617.43 107.818C1617.28 109.182 1617.2 110.698 1617.2 112.366C1617.2 114.034 1617.2 115.929 1617.2 118.052C1617.2 133.061 1620.01 144.811 1625.62 153.302C1631.38 161.792 1639.72 166.037 1650.63 166.037C1658.06 166.037 1664.51 164.218 1669.96 160.579C1675.57 156.789 1680.27 151.027 1684.06 143.295L1692.25 147.844C1687.85 158.911 1681.18 167.402 1672.24 173.315C1663.29 179.227 1652.53 182.184 1639.94 182.184ZM1710 179V170.131C1718.19 169.979 1723.8 168.766 1726.83 166.492C1730.01 164.066 1731.6 159.821 1731.6 153.756V90.3065C1731.6 83.1806 1729.94 78.1774 1726.6 75.2968C1723.42 72.2645 1717.88 70.5968 1710 70.2936V61.4242C1714.24 61.5758 1717.81 61.7274 1720.69 61.879C1723.72 62.0306 1726.98 62.1065 1730.47 62.1065C1742.9 62.1065 1753.74 61.0452 1762.99 58.9226V151.937C1762.99 158.608 1765.03 163.308 1769.13 166.037C1773.37 168.615 1780.73 169.979 1791.19 170.131V179C1788.31 178.848 1784.44 178.773 1779.59 178.773C1774.89 178.621 1769.73 178.469 1764.12 178.318C1758.67 178.166 1753.28 178.09 1747.98 178.09C1740.25 178.09 1732.82 178.242 1725.69 178.545C1718.72 178.697 1713.49 178.848 1710 179ZM1801.19 103.724C1797.4 103.724 1794.37 102.663 1792.1 100.54C1789.82 98.4177 1788.69 95.6887 1788.69 92.3532C1788.69 90.079 1789.06 88.1081 1789.82 86.4403C1790.58 84.621 1791.34 82.9532 1792.1 81.4371C1792.85 79.7694 1793.23 78.1774 1793.23 76.6613C1793.23 73.3258 1791.11 71.6581 1786.87 71.6581C1783.68 71.6581 1780.42 72.4161 1777.09 73.9323C1773.9 75.4484 1770.95 77.571 1768.22 80.3C1765.64 82.8774 1763.67 85.9097 1762.3 89.3968L1761.85 79.8452C1765.49 73.0226 1770.42 67.7161 1776.63 63.9258C1782.85 60.1355 1789.37 58.2403 1796.19 58.2403C1803.32 58.2403 1808.93 60.3629 1813.02 64.6081C1817.26 68.7016 1819.39 74.3871 1819.39 81.6645C1819.39 88.3355 1817.72 93.7177 1814.38 97.8113C1811.05 101.753 1806.65 103.724 1801.19 103.724ZM1831.45 179V170.131C1839.48 169.979 1845.09 168.766 1848.27 166.492C1851.46 164.218 1853.05 159.973 1853.05 153.756V90.3065C1853.05 83.4839 1851.46 78.5565 1848.27 75.5242C1845.24 72.3403 1839.63 70.5968 1831.45 70.2936V61.4242C1834.48 61.5758 1837.59 61.7274 1840.77 61.879C1843.95 62.0306 1847.14 62.1065 1850.32 62.1065C1856.84 62.1065 1862.91 61.879 1868.51 61.4242C1874.28 60.8177 1879.58 59.9839 1884.43 58.9226V153.756C1884.43 159.973 1886.03 164.218 1889.21 166.492C1892.39 168.766 1898 169.979 1906.04 170.131V179C1903.76 178.848 1900.58 178.773 1896.49 178.773C1892.55 178.621 1888.15 178.469 1883.3 178.318C1878.6 178.166 1873.9 178.09 1869.2 178.09C1862.07 178.09 1854.87 178.242 1847.59 178.545C1840.47 178.697 1835.08 178.848 1831.45 179ZM1867.83 38C1862.83 38 1858.36 36.4081 1854.41 33.2242C1850.62 30.0403 1848.73 25.7194 1848.73 20.2613C1848.73 14.6516 1850.62 10.2548 1854.41 7.07096C1858.36 3.8871 1862.83 2.29516 1867.83 2.29516C1872.84 2.29516 1877.23 3.8871 1881.02 7.07096C1884.96 10.2548 1886.94 14.5758 1886.94 20.0339C1886.94 25.6436 1884.96 30.0403 1881.02 33.2242C1877.23 36.4081 1872.84 38 1867.83 38ZM1980.9 182.184C1969.53 182.184 1959.45 179.985 1950.65 175.589C1941.86 171.04 1934.96 164.218 1929.96 155.121C1924.96 145.873 1922.45 134.274 1922.45 120.326C1922.45 106.377 1924.96 94.779 1929.96 85.5307C1934.96 76.2823 1941.86 69.4597 1950.65 65.0629C1959.45 60.5145 1969.53 58.2403 1980.9 58.2403C1992.42 58.2403 2002.51 60.5145 2011.15 65.0629C2019.79 69.4597 2026.61 76.2823 2031.62 85.5307C2036.62 94.779 2039.12 106.377 2039.12 120.326C2039.12 134.274 2036.62 145.873 2031.62 155.121C2026.61 164.218 2019.79 171.04 2011.15 175.589C2002.51 179.985 1992.42 182.184 1980.9 182.184ZM1980.9 173.315C1988.18 173.315 1994.17 169.145 1998.87 160.806C2003.72 152.316 2006.14 138.823 2006.14 120.326C2006.14 101.526 2003.72 87.9565 1998.87 79.6177C1994.17 71.1274 1988.18 66.8823 1980.9 66.8823C1973.47 66.8823 1967.41 71.1274 1962.71 79.6177C1958.01 87.9565 1955.66 101.526 1955.66 120.326C1955.66 138.823 1958.01 152.316 1962.71 160.806C1967.41 169.145 1973.47 173.315 1980.9 173.315ZM2058.09 179V170.131C2066.28 169.979 2071.89 168.766 2074.92 166.492C2078.11 164.066 2079.7 159.821 2079.7 153.756V90.3065C2079.7 83.1806 2078.03 78.1774 2074.69 75.2968C2071.51 72.2645 2065.98 70.5968 2058.09 70.2936V61.4242C2062.34 61.5758 2065.9 61.7274 2068.78 61.879C2071.81 62.0306 2075.07 62.1065 2078.56 62.1065C2090.99 62.1065 2101.83 61.0452 2111.08 58.9226V151.937C2111.08 158.608 2113.13 163.308 2117.22 166.037C2121.47 168.615 2128.82 169.979 2139.28 170.131V179C2136.4 178.848 2132.53 178.773 2127.68 178.773C2122.98 178.621 2117.83 178.469 2112.22 178.318C2106.76 178.166 2101.38 178.09 2096.07 178.09C2088.34 178.09 2080.91 178.242 2073.78 178.545C2066.81 178.697 2061.58 178.848 2058.09 179ZM2149.29 103.724C2145.5 103.724 2142.46 102.663 2140.19 100.54C2137.92 98.4177 2136.78 95.6887 2136.78 92.3532C2136.78 90.079 2137.16 88.1081 2137.92 86.4403C2138.67 84.621 2139.43 82.9532 2140.19 81.4371C2140.95 79.7694 2141.33 78.1774 2141.33 76.6613C2141.33 73.3258 2139.21 71.6581 2134.96 71.6581C2131.78 71.6581 2128.52 72.4161 2125.18 73.9323C2122 75.4484 2119.04 77.571 2116.31 80.3C2113.73 82.8774 2111.76 85.9097 2110.4 89.3968L2109.94 79.8452C2113.58 73.0226 2118.51 67.7161 2124.73 63.9258C2130.94 60.1355 2137.46 58.2403 2144.28 58.2403C2151.41 58.2403 2157.02 60.3629 2161.11 64.6081C2165.36 68.7016 2167.48 74.3871 2167.48 81.6645C2167.48 88.3355 2165.81 93.7177 2162.48 97.8113C2159.14 101.753 2154.75 103.724 2149.29 103.724ZM2237.76 182.184C2231.24 182.184 2225.78 181.502 2221.38 180.137C2216.99 178.773 2213.35 177.408 2210.47 176.044C2207.59 174.679 2205.01 173.997 2202.74 173.997C2199.1 173.997 2196.44 176.347 2194.78 181.047H2185.91C2186.36 176.953 2186.67 172.784 2186.82 168.539C2186.97 164.142 2187.04 159.29 2187.04 153.984C2187.04 148.526 2187.04 142.31 2187.04 135.335H2195.69C2198.26 147.768 2202.81 157.168 2209.33 163.535C2216 169.903 2224.49 173.087 2234.8 173.087C2241.62 173.087 2246.93 171.647 2250.72 168.766C2254.51 165.734 2256.41 161.565 2256.41 156.258C2256.41 151.103 2254.28 146.858 2250.04 143.523C2245.95 140.187 2238.59 136.927 2227.98 133.744C2214.33 129.65 2204.33 124.344 2197.96 117.824C2191.59 111.153 2188.41 102.966 2188.41 93.2629C2188.41 82.65 2191.9 74.1597 2198.87 67.7919C2206 61.4242 2215.47 58.2403 2227.3 58.2403C2233.36 58.2403 2238.52 58.9226 2242.76 60.2871C2247.01 61.5 2250.57 62.8645 2253.45 64.3806C2256.48 65.7452 2259.06 66.4274 2261.18 66.4274C2262.7 66.4274 2263.99 65.8968 2265.05 64.8355C2266.11 63.6226 2267.02 61.879 2267.78 59.6048H2276.65C2276.34 62.7887 2276.12 66.2 2275.97 69.8387C2275.81 73.3258 2275.66 77.4194 2275.51 82.1194C2275.51 86.8194 2275.59 92.6565 2275.74 99.6306H2266.87C2264.59 89.321 2260.27 81.3613 2253.91 75.7516C2247.69 70.1419 2240.26 67.3371 2231.62 67.3371C2225.55 67.3371 2220.78 68.7016 2217.29 71.4306C2213.96 74.1597 2212.29 78.1016 2212.29 83.2565C2212.29 88.5629 2214.56 92.9597 2219.11 96.4468C2223.66 99.9339 2231.54 103.345 2242.76 106.681C2255.95 110.319 2265.5 115.171 2271.42 121.235C2277.48 127.3 2280.51 135.26 2280.51 145.115C2280.51 156.789 2276.72 165.885 2269.14 172.405C2261.56 178.924 2251.1 182.184 2237.76 182.184Z" fill="black"/>
</svg>
