<svg width="1220" height="192" viewBox="0 0 1220 192" fill="none" xmlns="http://www.w3.org/2000/svg">
<path d="M25.88 188V178.64C35.16 178.48 42.12 177.92 46.76 176.96C51.56 175.84 54.76 173.68 56.36 170.48C57.96 167.28 58.76 162.48 58.76 156.08V28.16H51.08C44.04 28.16 37.96 29.84 32.84 33.2C27.72 36.4 23.32 41.68 19.64 49.04C15.96 56.4 12.76 66.08 10.04 78.08H0.44C1.88 68 2.92 58 3.56 48.08C4.2 38.16 4.6 28.16 4.76 18.08C11.8 18.24 19.48 18.4 27.8 18.56C36.28 18.72 44.76 18.8 53.24 18.8C61.88 18.8 69.8 18.8 77 18.8C84.04 18.8 91.8 18.8 100.28 18.8C108.76 18.8 117.24 18.72 125.72 18.56C134.36 18.4 142.2 18.24 149.24 18.08C149.4 28.16 149.8 38.16 150.44 48.08C151.08 58 152.12 68 153.56 78.08H143.96C141.88 69.12 139.56 61.44 137 55.04C134.44 48.64 131.48 43.52 128.12 39.68C124.92 35.68 121.24 32.8 117.08 31.04C112.92 29.12 108.12 28.16 102.68 28.16H95.24V156.08C95.24 162.48 96.04 167.28 97.64 170.48C99.24 173.68 102.36 175.84 107 176.96C111.8 177.92 118.84 178.48 128.12 178.64V188C122.52 187.84 115.16 187.68 106.04 187.52C97.08 187.36 87.56 187.28 77.48 187.28C66.76 187.28 56.84 187.36 47.72 187.52C38.6 187.68 31.32 187.84 25.88 188ZM254.114 188V178.64C260.034 178.48 264.034 177.2 266.114 174.8C268.354 172.24 269.474 167.76 269.474 161.36V101.84C269.474 93.2 267.794 86.72 264.434 82.4C261.074 78.08 256.034 75.92 249.314 75.92C244.034 75.92 239.154 77.44 234.674 80.48C230.194 83.52 226.274 87.92 222.914 93.68L223.154 83.12C227.154 75.92 232.594 70.4 239.474 66.56C246.514 62.56 254.434 60.56 263.234 60.56C276.034 60.56 285.794 64.4 292.514 72.08C299.394 79.6 302.834 90.48 302.834 104.72V161.36C302.834 167.76 304.434 172.24 307.634 174.8C310.994 177.2 316.914 178.48 325.394 178.64V188C322.994 187.84 319.634 187.76 315.314 187.76C311.154 187.6 306.594 187.44 301.634 187.28C296.674 187.12 291.794 187.04 286.994 187.04C280.594 187.04 274.274 187.2 268.034 187.52C261.794 187.68 257.154 187.84 254.114 188ZM168.194 188V178.64C176.834 178.48 182.754 177.2 185.954 174.8C189.314 172.24 190.994 167.76 190.994 161.36V33.2C190.994 25.84 189.314 20.56 185.954 17.36C182.594 14.16 176.674 12.4 168.194 12.08V2.72001C171.874 2.88001 175.314 3.04001 178.514 3.20001C181.874 3.36001 185.314 3.44001 188.834 3.44001C195.394 3.44001 201.554 3.20001 207.314 2.72001C213.234 2.08002 218.834 1.20002 224.114 0.0800172V161.36C224.114 167.76 225.234 172.24 227.474 174.8C229.714 177.2 233.794 178.48 239.714 178.64V188C236.354 187.84 231.714 187.68 225.794 187.52C220.034 187.2 214.114 187.04 208.034 187.04C200.834 187.04 193.474 187.2 185.954 187.52C178.434 187.68 172.514 187.84 168.194 188ZM401.152 191.36C389.152 191.36 378.672 188.8 369.712 183.68C360.912 178.4 354.112 170.88 349.312 161.12C344.512 151.36 342.112 139.76 342.112 126.32C342.112 112.24 344.672 100.32 349.792 90.56C354.912 80.8 362.112 73.36 371.392 68.24C380.672 63.12 391.552 60.56 404.032 60.56C415.232 60.56 424.752 62.64 432.592 66.8C440.432 70.8 446.352 77.12 450.352 85.76C454.352 94.4 456.192 105.6 455.872 119.36H365.872L365.632 110.24H425.872C426.032 102.4 425.312 95.52 423.712 89.6C422.272 83.52 419.872 78.72 416.512 75.2C413.152 71.68 408.752 69.92 403.312 69.92C396.432 69.92 390.512 73.28 385.552 80C380.752 86.72 377.872 97.36 376.912 111.92L377.392 112.88C377.232 114.32 377.152 115.92 377.152 117.68C377.152 119.44 377.152 121.44 377.152 123.68C377.152 139.52 380.112 151.92 386.032 160.88C392.112 169.84 400.912 174.32 412.432 174.32C420.272 174.32 427.072 172.4 432.832 168.56C438.752 164.56 443.712 158.48 447.712 150.32L456.352 155.12C451.712 166.8 444.672 175.76 435.232 182C425.792 188.24 414.432 191.36 401.152 191.36ZM539.662 188V178.64C547.022 178.32 552.462 177.68 555.982 176.72C559.662 175.6 562.062 173.68 563.182 170.96C564.462 168.08 565.102 163.76 565.102 158V48.08C565.102 42.32 564.462 38.08 563.182 35.36C562.062 32.48 559.662 30.48 555.982 29.36C552.462 28.24 547.022 27.6 539.662 27.44V18.08C542.542 18.24 547.342 18.4 554.062 18.56C560.942 18.56 569.262 18.56 579.022 18.56C584.622 18.56 589.582 18.56 593.902 18.56C598.222 18.56 602.062 18.56 605.422 18.56C608.942 18.4 612.062 18.32 614.782 18.32C617.662 18.16 620.142 18.08 622.222 18.08C644.462 18.08 661.262 21.68 672.622 28.88C683.982 36.08 689.662 46.64 689.662 60.56C689.662 70.16 686.782 78.4 681.022 85.28C675.262 92.16 666.942 97.44 656.062 101.12C645.342 104.8 632.222 106.64 616.702 106.64H585.262V100.4H616.942C629.422 100.4 638.702 97.36 644.782 91.28C650.862 85.04 653.902 75.6 653.902 62.96C653.902 50.96 651.022 42.08 645.262 36.32C639.662 30.4 630.942 27.44 619.102 27.44H601.582V158C601.582 163.6 602.142 167.84 603.262 170.72C604.542 173.6 607.022 175.6 610.702 176.72C614.382 177.68 619.822 178.32 627.022 178.64V188C619.022 187.52 604.542 187.28 583.582 187.28C562.302 187.28 547.662 187.52 539.662 188ZM684.862 191.36C674.622 191.36 666.862 189.04 661.582 184.4C656.462 179.6 652.782 171.6 650.542 160.4L645.502 134.96C644.062 128.4 642.222 123.36 639.982 119.84C637.902 116.16 635.022 113.52 631.342 111.92C627.822 110.32 623.022 109.52 616.942 109.52H586.942V103.28H614.782C630.302 103.28 642.702 104.48 651.982 106.88C661.262 109.28 668.382 113.36 673.342 119.12C678.302 124.88 682.062 132.96 684.622 143.36L688.222 158.48C689.662 164.56 691.422 168.88 693.502 171.44C695.582 174 698.382 175.2 701.902 175.04C703.822 175.04 705.502 174.72 706.942 174.08C708.542 173.28 710.142 172.08 711.742 170.48L716.302 177.44C712.142 182.24 707.582 185.76 702.622 188C697.662 190.24 691.742 191.36 684.862 191.36ZM783.905 191.36C771.905 191.36 761.425 188.8 752.465 183.68C743.665 178.4 736.865 170.88 732.065 161.12C727.265 151.36 724.865 139.76 724.865 126.32C724.865 112.24 727.425 100.32 732.545 90.56C737.665 80.8 744.865 73.36 754.145 68.24C763.425 63.12 774.305 60.56 786.785 60.56C797.985 60.56 807.505 62.64 815.345 66.8C823.185 70.8 829.105 77.12 833.105 85.76C837.105 94.4 838.945 105.6 838.625 119.36H748.625L748.385 110.24H808.625C808.785 102.4 808.065 95.52 806.465 89.6C805.025 83.52 802.625 78.72 799.265 75.2C795.905 71.68 791.505 69.92 786.065 69.92C779.185 69.92 773.265 73.28 768.305 80C763.505 86.72 760.625 97.36 759.665 111.92L760.145 112.88C759.985 114.32 759.905 115.92 759.905 117.68C759.905 119.44 759.905 121.44 759.905 123.68C759.905 139.52 762.865 151.92 768.785 160.88C774.865 169.84 783.665 174.32 795.185 174.32C803.025 174.32 809.825 172.4 815.585 168.56C821.505 164.56 826.465 158.48 830.465 150.32L839.105 155.12C834.465 166.8 827.425 175.76 817.985 182C808.545 188.24 797.185 191.36 783.905 191.36ZM919.565 191.36C912.685 191.36 906.925 190.64 902.285 189.2C897.645 187.76 893.805 186.32 890.765 184.88C887.725 183.44 885.005 182.72 882.605 182.72C878.765 182.72 875.965 185.2 874.205 190.16H864.845C865.325 185.84 865.645 181.44 865.805 176.96C865.965 172.32 866.045 167.2 866.045 161.6C866.045 155.84 866.045 149.28 866.045 141.92H875.165C877.885 155.04 882.685 164.96 889.565 171.68C896.605 178.4 905.565 181.76 916.445 181.76C923.645 181.76 929.245 180.24 933.245 177.2C937.245 174 939.245 169.6 939.245 164C939.245 158.56 937.005 154.08 932.525 150.56C928.205 147.04 920.445 143.6 909.245 140.24C894.845 135.92 884.285 130.32 877.565 123.44C870.845 116.4 867.485 107.76 867.485 97.52C867.485 86.32 871.165 77.36 878.525 70.64C886.045 63.92 896.045 60.56 908.525 60.56C914.925 60.56 920.365 61.28 924.845 62.72C929.325 64 933.085 65.44 936.125 67.04C939.325 68.48 942.045 69.2 944.285 69.2C945.885 69.2 947.245 68.64 948.365 67.52C949.485 66.24 950.445 64.4 951.245 62H960.605C960.285 65.36 960.045 68.96 959.885 72.8C959.725 76.48 959.565 80.8 959.405 85.76C959.405 90.72 959.485 96.88 959.645 104.24H950.285C947.885 93.36 943.325 84.96 936.605 79.04C930.045 73.12 922.205 70.16 913.085 70.16C906.685 70.16 901.645 71.6 897.965 74.48C894.445 77.36 892.685 81.52 892.685 86.96C892.685 92.56 895.085 97.2 899.885 100.88C904.685 104.56 913.005 108.16 924.845 111.68C938.765 115.52 948.845 120.64 955.085 127.04C961.485 133.44 964.685 141.84 964.685 152.24C964.685 164.56 960.685 174.16 952.685 181.04C944.685 187.92 933.645 191.36 919.565 191.36ZM1051.28 191.36C1039.28 191.36 1028.8 188.8 1019.84 183.68C1011.04 178.4 1004.24 170.88 999.44 161.12C994.64 151.36 992.24 139.76 992.24 126.32C992.24 112.24 994.8 100.32 999.92 90.56C1005.04 80.8 1012.24 73.36 1021.52 68.24C1030.8 63.12 1041.68 60.56 1054.16 60.56C1065.36 60.56 1074.88 62.64 1082.72 66.8C1090.56 70.8 1096.48 77.12 1100.48 85.76C1104.48 94.4 1106.32 105.6 1106 119.36H1016L1015.76 110.24H1076C1076.16 102.4 1075.44 95.52 1073.84 89.6C1072.4 83.52 1070 78.72 1066.64 75.2C1063.28 71.68 1058.88 69.92 1053.44 69.92C1046.56 69.92 1040.64 73.28 1035.68 80C1030.88 86.72 1028 97.36 1027.04 111.92L1027.52 112.88C1027.36 114.32 1027.28 115.92 1027.28 117.68C1027.28 119.44 1027.28 121.44 1027.28 123.68C1027.28 139.52 1030.24 151.92 1036.16 160.88C1042.24 169.84 1051.04 174.32 1062.56 174.32C1070.4 174.32 1077.2 172.4 1082.96 168.56C1088.88 164.56 1093.84 158.48 1097.84 150.32L1106.48 155.12C1101.84 166.8 1094.8 175.76 1085.36 182C1075.92 188.24 1064.56 191.36 1051.28 191.36ZM1182.13 191.36C1169.65 191.36 1160.29 187.92 1154.05 181.04C1147.81 174 1144.69 163.6 1144.69 149.84V73.28H1118.53V63.92H1144.69V29.12C1150.93 29.12 1156.77 28.72 1162.21 27.92C1167.65 27.12 1172.85 26 1177.81 24.56V63.92H1213.81V73.28H1177.81V157.76C1177.81 163.84 1179.01 168.4 1181.41 171.44C1183.97 174.32 1187.73 175.76 1192.69 175.76C1197.33 175.76 1201.25 174.32 1204.45 171.44C1207.65 168.4 1210.29 164 1212.37 158.24L1219.81 161.36C1216.45 171.76 1211.81 179.36 1205.89 184.16C1199.97 188.96 1192.05 191.36 1182.13 191.36Z" fill="black"/>
</svg>
